<svg xmlns="http://www.w3.org/2000/svg" version="1.0" preserveAspectRatio="xMidYMid meet" viewBox="64.42 384.95 898.08 223.9">
<g transform="translate(0.000000,1024.000000) scale(0.100000,-0.100000)" fill="#fb923c" stroke="none">
<path d="M2500 6388 c-204 -14 -386 -74 -572 -189 -43 -26 -78 -43 -79 -36 0 7 -3 5 -7 -4 -4 -9 -47 -50 -97 -91 -159 -134 -340 -333 -412 -456 -14 -23 -29 -40 -33 -37 -5 3 -12 0 -16 -6 -4 -8 -3 -9 4 -5 18 11 16 5 -40 -90 -67 -116 -163 -319 -223 -469 -26 -66 -51 -122 -56 -123 -5 -2 -7 -8 -4 -12 7 -12 -74 -180 -122 -255 -55 -84 -133 -161 -171 -170 -53 -11 -28 -22 56 -24 149 -4 313 48 436 136 28 20 56 36 63 36 7 0 10 3 8 7 -3 4 18 26 45 49 58 49 168 178 229 269 25 37 47 60 53 56 7 -4 8 -3 4 4 -4 6 11 43 34 82 22 40 72 135 111 213 39 78 75 145 81 148 5 3 8 8 6 10 -5 7 34 90 40 85 2 -3 -5 -33 -16 -68 -37 -114 -54 -218 -54 -348 0 -164 25 -295 81 -423 11 -26 17 -45 12 -42 -5 3 -13 0 -17 -6 -4 -8 -3 -9 4 -5 15 9 55 -32 48 -50 -3 -8 -2 -12 4 -9 10 6 35 -31 35 -55 1 -8 6 -14 12 -13 13 3 65 -61 58 -71 -3 -3 -2 -4 1 -1 4 2 30 -16 58 -42 28 -25 68 -57 88 -71 21 -13 35 -29 31 -35 -3 -5 -1 -7 4 -4 6 4 48 -11 94 -32 133 -62 215 -82 367 -88 148 -6 241 5 370 43 45 14 88 22 94 18 6 -4 8 -3 5 3 -4 6 4 14 18 17 14 4 25 10 25 15 0 13 -28 22 -35 11 -15 -24 -233 4 -338 44 -91 34 -149 65 -142 76 4 6 -1 7 -11 3 -13 -5 -15 -3 -9 7 5 9 4 11 -4 6 -15 -10 -113 62 -104 76 3 6 1 8 -4 5 -23 -14 -209 202 -198 231 2 7 0 10 -5 7 -13 -8 -60 95 -88 190 -45 152 -51 305 -17 466 19 89 60 195 75 191 6 -1 9 2 5 7 -29 48 248 347 303 326 7 -3 11 -1 8 4 -13 20 176 81 249 81 l40 -1 -38 -20 c-22 -11 -45 -18 -53 -15 -8 3 -19 -3 -26 -13 -6 -11 -18 -17 -25 -14 -8 3 -13 0 -11 -8 2 -8 -4 -13 -14 -13 -10 1 -16 -2 -13 -6 2 -4 -24 -30 -59 -59 -35 -28 -83 -76 -106 -106 -23 -30 -47 -52 -53 -48 -5 3 -7 1 -4 -4 4 -6 -11 -42 -33 -79 -119 -203 -143 -494 -59 -707 11 -27 17 -57 14 -67 -3 -10 -1 -21 4 -25 7 -4 8 1 4 12 -3 10 13 -10 36 -45 23 -35 38 -68 35 -74 -4 -6 -3 -8 3 -5 5 3 26 -13 46 -37 20 -24 64 -65 99 -90 35 -26 71 -54 81 -61 9 -8 17 -13 17 -10 0 3 18 -4 39 -15 22 -11 79 -31 128 -46 99 -29 256 -39 358 -24 92 15 265 63 265 75 0 6 -35 10 -87 10 -102 1 -209 20 -273 48 -25 11 -50 21 -57 23 -7 1 -39 18 -71 38 -231 140 -357 425 -322 726 11 98 37 195 67 255 31 60 74 115 85 109 6 -4 8 -3 5 3 -10 15 58 72 118 99 27 13 74 26 104 30 48 6 54 5 48 -9 -4 -10 -2 -17 3 -17 6 0 10 5 10 10 0 34 116 -25 166 -85 21 -25 46 -45 56 -45 10 0 32 13 50 29 32 29 33 31 33 113 0 79 -2 87 -43 163 -24 44 -63 103 -87 131 -84 98 -222 189 -351 231 -46 15 -81 29 -79 32 2 3 -13 7 -33 7 -21 1 -89 5 -152 10 -63 5 -158 6 -210 2z"/>
<path d="M4002 5782 c-4 -9 -7 -300 -7 -647 l0 -630 125 -3 c137 -3 175 2 163 21 -4 6 -8 117 -8 244 l-1 233 243 0 242 0 3 108 c2 59 2 112 0 117 -1 6 -90 9 -247 8 l-245 -2 0 158 c0 156 0 159 22 165 13 3 131 5 263 4 l240 -1 3 122 3 121 -396 0 c-364 -1 -396 -2 -403 -18z"/>
<path d="M4969 5798 c-4 -11 -6 -1248 -2 -1269 l5 -26 131 -2 c109 -2 135 1 152 14 17 14 17 16 3 11 -17 -5 -18 30 -18 633 l0 638 -135 2 c-74 1 -135 1 -136 -1z"/>
<path d="M8441 5759 c-10 -21 -21 -36 -26 -31 -5 4 -5 1 -1 -5 4 -7 -12 -67 -36 -133 -31 -87 -45 -115 -51 -102 -5 12 -6 10 -3 -7 6 -29 -52 -203 -65 -195 -5 3 -6 -1 -3 -9 3 -8 -56 -181 -130 -385 -75 -204 -136 -375 -136 -382 0 -8 42 -10 147 -8 l147 3 26 80 c14 44 36 109 48 145 l22 65 232 -1 232 -2 51 -144 50 -143 150 0 c95 0 149 4 148 10 -2 6 -50 138 -108 295 -58 157 -103 291 -100 298 3 7 1 11 -4 8 -5 -3 -20 28 -35 68 -29 84 -31 90 -14 80 7 -5 8 -3 4 5 -5 7 -11 10 -14 7 -4 -5 -57 132 -185 484 l-13 35 -158 1 -158 2 -17 -39z m214 -444 c-3 -11 -2 -14 2 -6 5 12 69 -152 107 -276 7 -21 6 -21 -153 -21 l-159 0 8 26 c11 39 126 371 140 407 l12 30 24 -70 c13 -38 22 -78 19 -90z"/>
<path d="M9360 5160 c0 -352 1 -643 3 -647 1 -5 61 -8 132 -8 l130 0 0 644 -1 644 -132 3 -132 4 0 -640z"/>
<path d="M5706 5439 c-69 -17 -163 -69 -211 -118 -98 -98 -144 -197 -152 -326 -7 -101 8 -181 49 -265 39 -78 43 -90 28 -70 -8 10 -10 11 -8 2 2 -8 6 -12 10 -10 3 2 31 -20 61 -49 30 -29 80 -64 110 -79 31 -15 54 -30 52 -33 -2 -3 9 -7 23 -8 223 -15 228 -15 292 2 219 57 360 242 360 475 0 137 -40 241 -129 337 -27 29 -46 55 -42 58 3 4 2 6 -4 4 -11 -3 -156 67 -150 72 11 12 -245 19 -289 8z m212 -249 c29 -13 41 -24 36 -32 -4 -7 -4 -10 1 -6 11 11 36 -12 28 -25 -3 -6 -1 -7 6 -3 7 5 20 -12 37 -49 46 -101 23 -246 -49 -314 -15 -13 -31 -20 -38 -16 -7 5 -10 4 -6 -2 10 -16 -37 -32 -84 -27 -35 3 -39 2 -19 -5 45 -16 -11 -13 -67 4 -99 29 -153 117 -153 247 0 67 24 153 40 143 5 -3 12 0 16 6 4 8 3 9 -4 5 -21 -13 -13 10 12 33 15 14 30 20 37 16 8 -5 10 -4 5 4 -11 17 51 40 109 40 29 0 68 -8 93 -19z"/>
<path d="M6295 5432 c-1 -2 3 -16 11 -31 7 -15 15 -38 16 -52 2 -13 7 -27 12 -30 5 -4 9 -20 10 -37 0 -17 4 -28 7 -26 10 6 181 -514 173 -527 -4 -7 -3 -9 4 -6 6 5 25 -38 50 -113 21 -66 42 -117 45 -114 3 4 60 6 126 5 117 -2 121 -1 131 21 5 13 39 122 75 243 68 226 89 285 82 233 -3 -17 0 -25 6 -21 6 4 8 -2 5 -15 -4 -12 -3 -20 2 -17 10 6 20 -46 14 -76 -3 -19 -3 -20 4 -6 6 14 19 -16 50 -116 46 -147 47 -151 32 -142 -5 3 -10 1 -10 -4 0 -6 6 -11 13 -11 7 0 19 -19 27 -42 l15 -43 121 -3 c89 -2 124 1 131 10 5 7 45 114 88 238 43 124 113 325 157 447 43 122 78 226 78 230 0 4 -64 8 -142 8 l-142 0 -16 -43 c-9 -23 -20 -39 -25 -35 -4 4 -5 2 0 -6 5 -8 -19 -102 -61 -238 l-69 -224 -26 83 c-14 46 -52 169 -84 273 l-57 190 -111 0 c-87 0 -112 -4 -118 -15 -4 -8 -43 -130 -86 -272 -43 -141 -79 -255 -81 -253 -2 2 -5 9 -6 17 -2 7 -6 20 -9 28 -8 18 -102 330 -124 410 -24 88 -14 83 -173 84 -78 1 -143 0 -145 -2z"/>
</g>
</svg>